<?xml version="1.0" encoding="UTF-8"?>
<svg xmlns="http://www.w3.org/2000/svg" xmlns:xlink="http://www.w3.org/1999/xlink" width="640pt" height="640pt" viewBox="0 0 640 640" version="1.1">
<defs>
<linearGradient id="linear0" gradientUnits="userSpaceOnUse" x1="256" y1="512" x2="256" y2="0" gradientTransform="matrix(1.25,0,0,1.25,0,0)">
<stop offset="0" style="stop-color:rgb(76.470588%,100%,90.980392%);stop-opacity:1;"/>
<stop offset="0.9973" style="stop-color:rgb(94.117647%,100%,95.686275%);stop-opacity:1;"/>
</linearGradient>
<linearGradient id="linear1" gradientUnits="userSpaceOnUse" x1="256" y1="512" x2="256" y2="152" gradientTransform="matrix(1.25,0,0,1.25,0,0)">
<stop offset="0" style="stop-color:rgb(0%,70.980392%,61.176471%);stop-opacity:1;"/>
<stop offset="1" style="stop-color:rgb(61.176471%,100%,67.45098%);stop-opacity:1;"/>
</linearGradient>
</defs>
<g id="surface1">
<path style=" stroke:none;fill-rule:nonzero;fill:url(#linear0);" d="M 485.964844 348.898438 C 482.523438 343.367188 476.484375 340 470 340 L 462.710938 340 L 465.824219 333.683594 C 468.71875 327.859375 468.351562 320.957031 464.910156 315.445312 L 410.050781 227.5 L 432.5 227.5 C 439.238281 227.5 445.5 223.875 448.832031 217.996094 C 452.128906 212.117188 452.054688 204.902344 448.578125 199.101562 L 336.078125 8.457031 C 329.335938 -2.820312 310.660156 -2.820312 303.921875 8.457031 L 191.421875 199.101562 C 187.945312 204.90625 187.871094 212.117188 191.167969 217.996094 C 194.5 223.875 200.761719 227.5 207.5 227.5 L 229.949219 227.5 L 175.089844 315.445312 C 171.648438 320.957031 171.28125 327.859375 174.175781 333.683594 L 177.289062 340 L 170 340 C 163.515625 340 157.476562 343.367188 154.035156 348.898438 C 150.628906 354.429688 150.335938 361.332031 153.226562 367.136719 L 214.675781 490 L 207.5 490 C 201.457031 490 195.816406 492.890625 192.300781 497.78125 C 188.75 502.671875 187.796875 508.96875 189.703125 514.683594 L 227.203125 627.183594 C 229.765625 634.835938 236.945312 640 245 640 L 395 640 C 403.054688 640 410.234375 634.835938 412.796875 627.183594 L 450.296875 514.683594 C 452.203125 508.96875 451.25 502.671875 447.699219 497.78125 C 444.183594 492.890625 438.542969 490 432.5 490 L 425.324219 490 L 486.773438 367.136719 C 489.664062 361.332031 489.371094 354.429688 485.964844 348.898438 Z M 485.964844 348.898438 "/>
<path style=" stroke:none;fill-rule:nonzero;fill:url(#linear1);" d="M 233.5 527.5 L 245 527.5 C 251.484375 527.5 257.523438 524.132812 260.964844 518.601562 C 264.371094 513.070312 264.664062 506.167969 261.773438 500.363281 L 200.324219 377.5 L 207.5 377.5 C 213.984375 377.5 220.023438 374.148438 223.429688 368.636719 C 226.835938 363.125 227.164062 356.242188 224.308594 350.4375 L 149.273438 200.34375 C 146.085938 194.011719 139.605469 190 132.5 190 C 125.394531 190 118.914062 194.011719 115.726562 200.363281 L 39.488281 350.363281 C 36.59375 356.167969 36.886719 363.070312 40.292969 368.601562 C 43.734375 374.132812 49.777344 377.5 56.261719 377.5 L 63.4375 377.5 L 1.988281 500.363281 C -0.90625 506.167969 -0.613281 513.070312 2.792969 518.601562 C 6.234375 524.132812 12.277344 527.5 18.761719 527.5 L 30.257812 527.5 L 0.960938 615.316406 C -0.941406 621.03125 0.0078125 627.328125 3.5625 632.21875 C 7.078125 637.109375 12.71875 640 18.761719 640 L 245 640 C 251.042969 640 256.683594 637.109375 260.199219 632.21875 C 263.75 627.328125 264.703125 621.03125 262.796875 615.316406 Z M 639.039062 615.316406 L 609.742188 527.5 L 621.238281 527.5 C 627.722656 527.5 633.765625 524.132812 637.207031 518.601562 C 640.613281 513.070312 640.90625 506.167969 638.011719 500.363281 L 576.5625 377.5 L 583.738281 377.5 C 590.222656 377.5 596.265625 374.132812 599.707031 368.601562 C 603.113281 363.070312 603.40625 356.167969 600.511719 350.363281 L 524.273438 200.363281 C 521.085938 194.011719 514.605469 190 507.5 190 C 500.394531 190 493.914062 194.011719 490.726562 200.34375 L 415.691406 350.4375 C 412.835938 356.242188 413.164062 363.125 416.570312 368.640625 C 419.976562 374.152344 426.015625 377.5 432.5 377.5 L 439.675781 377.5 L 378.226562 500.363281 C 375.335938 506.167969 375.628906 513.070312 379.035156 518.601562 C 382.476562 524.132812 388.515625 527.5 395 527.5 L 406.5 527.5 L 377.203125 615.316406 C 375.296875 621.03125 376.25 627.328125 379.800781 632.21875 C 383.316406 637.109375 388.957031 640 395 640 L 621.238281 640 C 627.28125 640 632.921875 637.109375 636.4375 632.21875 C 639.988281 627.328125 640.941406 621.03125 639.039062 615.316406 Z M 639.039062 615.316406 "/>
</g>
</svg>
