<?xml version="1.0" standalone="no"?>
<!DOCTYPE svg PUBLIC "-//W3C//DTD SVG 20010904//EN"
 "http://www.w3.org/TR/2001/REC-SVG-20010904/DTD/svg10.dtd">
<svg version="1.0" xmlns="http://www.w3.org/2000/svg"
 width="512.000000pt" height="512.000000pt" viewBox="0 0 512.000000 512.000000"
 preserveAspectRatio="xMidYMid meet">
<metadata>
Created by potrace 1.11, written by Peter Selinger 2001-2013
</metadata>
<g transform="translate(0.000000,512.000000) scale(0.100000,-0.100000)"
fill="#000000" stroke="none">
<path d="M2495 5107 c-16 -8 -37 -23 -46 -33 -9 -11 -97 -156 -196 -324 -99
-168 -216 -366 -260 -440 -70 -119 -103 -174 -173 -295 -10 -16 -75 -127 -145
-245 -177 -299 -184 -315 -149 -383 37 -70 61 -81 194 -87 l117 -5 -110 -175
c-60 -96 -126 -203 -147 -237 l-37 -62 -177 353 c-97 195 -187 365 -199 378
-53 60 -156 60 -215 1 -17 -16 -19 -21 -317 -608 -125 -247 -250 -491 -276
-542 -26 -50 -50 -105 -54 -121 -20 -95 54 -182 155 -182 22 0 40 -3 40 -7 0
-4 -113 -234 -251 -510 -239 -479 -251 -505 -246 -547 11 -90 71 -136 178
-136 45 0 60 -3 56 -12 -2 -7 -14 -42 -26 -78 -11 -36 -64 -193 -116 -349 -52
-157 -95 -295 -95 -308 0 -40 31 -103 64 -126 l31 -22 2453 -3 2452 -2 41 21
c43 21 78 80 79 129 0 14 -54 187 -120 385 -66 198 -120 361 -120 362 0 2 27
3 60 3 110 0 165 44 177 143 4 34 -22 91 -246 540 -138 276 -251 506 -251 510
0 4 18 7 40 7 50 0 88 17 122 53 28 31 44 91 33 129 -7 23 -152 316 -345 693
-59 116 -147 288 -195 384 -48 95 -101 186 -117 202 -44 41 -104 48 -165 18
l-48 -24 -185 -368 c-136 -271 -186 -363 -192 -350 -4 10 -70 117 -146 238
l-139 220 111 5 c155 7 199 36 213 139 7 48 9 43 -244 468 -113 192 -213 362
-222 378 -9 17 -52 91 -96 165 -44 74 -145 245 -225 379 -80 134 -156 253
-170 263 -34 25 -116 32 -155 15z"/>
</g>
</svg>
